<?xml version="1.0" encoding="UTF-8" standalone="no"?>
<!DOCTYPE svg PUBLIC "-//W3C//DTD SVG 1.1//EN"
 "http://www.w3.org/Graphics/SVG/1.1/DTD/svg11.dtd">
<!-- Generated by graphviz version 2.40.1 (20161225.0304)
 -->
<!-- Pages: 1 -->
<svg width="1163pt" height="171pt"
 viewBox="0.00 0.00 1163.41 171.00" xmlns="http://www.w3.org/2000/svg" xmlns:xlink="http://www.w3.org/1999/xlink">
<g id="graph0" class="graph" transform="scale(1 1) rotate(0) translate(4 167)">
<polygon fill="#ffffff" stroke="transparent" points="-4,4 -4,-167 1159.4126,-167 1159.4126,4 -4,4"/>
<!-- 1 -->
<g id="node1" class="node">
<title>1</title>
<ellipse fill="none" stroke="#ff0000" cx="18" cy="-38" rx="18" ry="18"/>
<text text-anchor="middle" x="18" y="-33.8" font-family="Times,serif" font-size="14.00" fill="#ff0000">1</text>
</g>
<!-- 2 -->
<g id="node2" class="node">
<title>2</title>
<ellipse fill="none" stroke="#ff0000" cx="100.1066" cy="-38" rx="18" ry="18"/>
<text text-anchor="middle" x="100.1066" y="-33.8" font-family="Times,serif" font-size="14.00" fill="#ff0000">2</text>
</g>
<!-- 1&#45;&gt;2 -->
<g id="edge6" class="edge">
<title>1&#45;&gt;2</title>
<path fill="none" stroke="#ff0000" d="M36.2221,-38C46.6396,-38 59.9329,-38 71.693,-38"/>
<polygon fill="#ff0000" stroke="#ff0000" points="71.9355,-41.5001 81.9354,-38 71.9354,-34.5001 71.9355,-41.5001"/>
<text text-anchor="middle" x="59.0533" y="-42.2" font-family="Times,serif" font-size="14.00" fill="#ff0000">A</text>
</g>
<!-- 3 -->
<g id="node3" class="node">
<title>3</title>
<ellipse fill="none" stroke="#ff0000" cx="182.2132" cy="-78" rx="18" ry="18"/>
<text text-anchor="middle" x="182.2132" y="-73.8" font-family="Times,serif" font-size="14.00" fill="#ff0000">3</text>
</g>
<!-- 2&#45;&gt;3 -->
<g id="edge17" class="edge">
<title>2&#45;&gt;3</title>
<path fill="none" stroke="#000000" d="M116.2039,-46.1279C122.4112,-49.2413 129.5769,-52.8101 136.1066,-56 142.6387,-59.1911 149.7148,-62.5942 156.3167,-65.7463"/>
<polygon fill="#000000" stroke="#000000" points="154.9977,-68.9947 165.5315,-70.1311 158.0055,-62.6738 154.9977,-68.9947"/>
<text text-anchor="middle" x="141.1599" y="-65.2" font-family="Times,serif" font-size="14.00" fill="#000000">D</text>
</g>
<!-- 2&#45;&gt;3 -->
<g id="edge21" class="edge">
<title>2&#45;&gt;3</title>
<path fill="none" stroke="#ff0000" d="M117.4893,-33.1074C126.4567,-31.5129 137.3438,-31.0705 146.2132,-35.2 154.6909,-39.1471 161.8851,-46.1822 167.5617,-53.4232"/>
<polygon fill="#ff0000" stroke="#ff0000" points="164.8843,-55.6991 173.5143,-61.8452 170.6007,-51.6589 164.8843,-55.6991"/>
<text text-anchor="middle" x="141.1599" y="-40.2" font-family="Times,serif" font-size="14.00" fill="#ff0000">C</text>
</g>
<!-- 10 -->
<g id="node10" class="node">
<title>10</title>
<ellipse fill="none" stroke="#ff0000" cx="703.4537" cy="-62" rx="20.8887" ry="20.8887"/>
<text text-anchor="middle" x="703.4537" y="-57.8" font-family="Times,serif" font-size="14.00" fill="#ff0000">10</text>
</g>
<!-- 2&#45;&gt;10 -->
<g id="edge1" class="edge">
<title>2&#45;&gt;10</title>
<path fill="none" stroke="#000000" d="M114.3165,-26.8043C130.0017,-15.5952 156.4533,0 182.2132,0 182.2132,0 182.2132,0 616.3156,0 643.5259,0 668.1395,-20.3194 684.2119,-37.6934"/>
<polygon fill="#000000" stroke="#000000" points="681.7427,-40.1857 690.974,-45.3851 687,-35.5639 681.7427,-40.1857"/>
<text text-anchor="middle" x="412.9881" y="-4.2" font-family="Times,serif" font-size="14.00" fill="#000000">B</text>
</g>
<!-- 4 -->
<g id="node4" class="node">
<title>4</title>
<ellipse fill="none" stroke="#000000" cx="264.3198" cy="-139" rx="18" ry="18"/>
<text text-anchor="middle" x="264.3198" y="-134.8" font-family="Times,serif" font-size="14.00" fill="#000000">4</text>
</g>
<!-- 3&#45;&gt;4 -->
<g id="edge7" class="edge">
<title>3&#45;&gt;4</title>
<path fill="none" stroke="#000000" d="M195.5326,-90.2195C202.1726,-96.1148 210.4294,-103.1576 218.2132,-109 225.0872,-114.1595 232.8265,-119.3991 239.9731,-124.0248"/>
<polygon fill="#000000" stroke="#000000" points="238.281,-127.0964 248.5988,-129.5035 242.0341,-121.1875 238.281,-127.0964"/>
<text text-anchor="middle" x="223.2665" y="-120.2" font-family="Times,serif" font-size="14.00" fill="#000000">G</text>
</g>
<!-- 6 -->
<g id="node6" class="node">
<title>6</title>
<ellipse fill="none" stroke="#ff0000" cx="318.3198" cy="-90" rx="18" ry="18"/>
<text text-anchor="middle" x="318.3198" y="-85.8" font-family="Times,serif" font-size="14.00" fill="#ff0000">6</text>
</g>
<!-- 3&#45;&gt;6 -->
<g id="edge9" class="edge">
<title>3&#45;&gt;6</title>
<path fill="none" stroke="#ff0000" d="M200.2871,-79.5935C223.2687,-81.6197 263.198,-85.1401 290.1803,-87.519"/>
<polygon fill="#ff0000" stroke="#ff0000" points="289.9024,-91.008 300.1711,-88.3999 290.5172,-84.0351 289.9024,-91.008"/>
<text text-anchor="middle" x="223.2665" y="-85.2" font-family="Times,serif" font-size="14.00" fill="#ff0000">E</text>
</g>
<!-- 3&#45;&gt;10 -->
<g id="edge20" class="edge">
<title>3&#45;&gt;10</title>
<path fill="none" stroke="#000000" d="M197.5662,-68.0504C213.5637,-58.6567 239.6885,-46 264.3198,-46 264.3198,-46 264.3198,-46 616.3156,-46 635.6765,-46 657.0651,-49.8683 673.8066,-53.8008"/>
<polygon fill="#000000" stroke="#000000" points="673.0216,-57.2121 683.5703,-56.2236 674.7076,-50.4182 673.0216,-57.2121"/>
<text text-anchor="middle" x="453.6564" y="-50.2" font-family="Times,serif" font-size="14.00" fill="#000000">O</text>
</g>
<!-- 5 -->
<g id="node5" class="node">
<title>5</title>
<ellipse fill="none" stroke="#000000" cx="372.3198" cy="-145" rx="18" ry="18"/>
<text text-anchor="middle" x="372.3198" y="-140.8" font-family="Times,serif" font-size="14.00" fill="#000000">5</text>
</g>
<!-- 4&#45;&gt;5 -->
<g id="edge11" class="edge">
<title>4&#45;&gt;5</title>
<path fill="none" stroke="#000000" d="M282.6405,-140.0178C299.4988,-140.9544 324.7547,-142.3575 344.1728,-143.4363"/>
<polygon fill="#000000" stroke="#000000" points="344.0909,-146.937 354.2696,-143.9972 344.4792,-139.9478 344.0909,-146.937"/>
<text text-anchor="middle" x="318.3198" y="-146.2" font-family="Times,serif" font-size="14.00" fill="#000000">H</text>
</g>
<!-- 7 -->
<g id="node7" class="node">
<title>7</title>
<ellipse fill="none" stroke="#ff0000" cx="453.6564" cy="-123" rx="18" ry="18"/>
<text text-anchor="middle" x="453.6564" y="-118.8" font-family="Times,serif" font-size="14.00" fill="#ff0000">7</text>
</g>
<!-- 5&#45;&gt;7 -->
<g id="edge12" class="edge">
<title>5&#45;&gt;7</title>
<path fill="none" stroke="#000000" d="M389.9686,-140.2263C400.5205,-137.3722 414.1553,-133.6843 426.1001,-130.4535"/>
<polygon fill="#000000" stroke="#000000" points="427.3028,-133.754 436.042,-127.7644 425.475,-126.9968 427.3028,-133.754"/>
<text text-anchor="middle" x="412.9881" y="-138.2" font-family="Times,serif" font-size="14.00" fill="#000000">I</text>
</g>
<!-- 6&#45;&gt;7 -->
<g id="edge10" class="edge">
<title>6&#45;&gt;7</title>
<path fill="none" stroke="#ff0000" d="M336.2478,-91.8938C350.922,-93.6571 372.1469,-96.6968 390.3198,-101.2 402.5916,-104.2409 415.8633,-108.6307 427.0722,-112.6753"/>
<polygon fill="#ff0000" stroke="#ff0000" points="426.1054,-116.0496 436.6985,-116.244 428.5387,-109.4861 426.1054,-116.0496"/>
<text text-anchor="middle" x="372.3198" y="-105.2" font-family="Times,serif" font-size="14.00" fill="#ff0000">F</text>
</g>
<!-- 8 -->
<g id="node8" class="node">
<title>8</title>
<ellipse fill="none" stroke="#ff0000" cx="535.763" cy="-105" rx="18" ry="18"/>
<text text-anchor="middle" x="535.763" y="-100.8" font-family="Times,serif" font-size="14.00" fill="#ff0000">8</text>
</g>
<!-- 7&#45;&gt;8 -->
<g id="edge2" class="edge">
<title>7&#45;&gt;8</title>
<path fill="none" stroke="#000000" d="M471.4723,-119.0943C482.1241,-116.7591 495.8879,-113.7417 507.9458,-111.0983"/>
<polygon fill="#000000" stroke="#000000" points="508.9634,-114.4584 517.9819,-108.8981 507.4643,-107.6208 508.9634,-114.4584"/>
<text text-anchor="middle" x="494.7097" y="-119.2" font-family="Times,serif" font-size="14.00" fill="#000000">K</text>
</g>
<!-- 7&#45;&gt;8 -->
<g id="edge19" class="edge">
<title>7&#45;&gt;8</title>
<path fill="none" stroke="#ff0000" d="M465.0999,-108.9425C471.519,-102.1917 480.1411,-94.8008 489.6564,-91.2 496.377,-88.6568 503.7855,-89.3797 510.6613,-91.4613"/>
<polygon fill="#ff0000" stroke="#ff0000" points="509.6263,-94.8163 520.2118,-95.2611 512.2141,-88.3122 509.6263,-94.8163"/>
<text text-anchor="middle" x="494.7097" y="-95.2" font-family="Times,serif" font-size="14.00" fill="#ff0000">J</text>
</g>
<!-- 9 -->
<g id="node9" class="node">
<title>9</title>
<ellipse fill="none" stroke="#ff0000" cx="616.3156" cy="-105" rx="18" ry="18"/>
<text text-anchor="middle" x="616.3156" y="-100.8" font-family="Times,serif" font-size="14.00" fill="#ff0000">9</text>
</g>
<!-- 8&#45;&gt;9 -->
<g id="edge8" class="edge">
<title>8&#45;&gt;9</title>
<path fill="none" stroke="#ff0000" d="M554.0416,-105C564.0318,-105 576.6267,-105 587.8712,-105"/>
<polygon fill="#ff0000" stroke="#ff0000" points="588.1093,-108.5001 598.1093,-105 588.1093,-101.5001 588.1093,-108.5001"/>
<text text-anchor="middle" x="576.0393" y="-109.2" font-family="Times,serif" font-size="14.00" fill="#ff0000">L</text>
</g>
<!-- 9&#45;&gt;10 -->
<g id="edge13" class="edge">
<title>9&#45;&gt;10</title>
<path fill="none" stroke="#ff0000" d="M634.5407,-104.4332C643.952,-103.5475 655.3934,-101.5188 664.7602,-97 671.1186,-93.9325 677.1918,-89.4888 682.5641,-84.7911"/>
<polygon fill="#ff0000" stroke="#ff0000" points="685.0313,-87.275 689.8852,-77.8575 680.2179,-82.1926 685.0313,-87.275"/>
<text text-anchor="middle" x="658.5379" y="-105.2" font-family="Times,serif" font-size="14.00" fill="#ff0000">M</text>
</g>
<!-- 9&#45;&gt;10 -->
<g id="edge14" class="edge">
<title>9&#45;&gt;10</title>
<path fill="none" stroke="#ff0000" d="M629.423,-92.3744C635.8831,-86.7376 644.0496,-80.428 652.3156,-76.2 658.709,-72.9298 665.9493,-70.3347 672.9283,-68.3066"/>
<polygon fill="#ff0000" stroke="#ff0000" points="674.0407,-71.6338 682.8372,-65.7285 672.2781,-64.8594 674.0407,-71.6338"/>
<text text-anchor="middle" x="658.5379" y="-80.2" font-family="Times,serif" font-size="14.00" fill="#ff0000">N</text>
</g>
<!-- 11 -->
<g id="node11" class="node">
<title>11</title>
<ellipse fill="none" stroke="#ff0000" cx="788.6232" cy="-62" rx="20.8887" ry="20.8887"/>
<text text-anchor="middle" x="788.6232" y="-57.8" font-family="Times,serif" font-size="14.00" fill="#ff0000">11</text>
</g>
<!-- 10&#45;&gt;11 -->
<g id="edge15" class="edge">
<title>10&#45;&gt;11</title>
<path fill="none" stroke="#ff0000" d="M724.5068,-62C734.5112,-62 746.6672,-62 757.6936,-62"/>
<polygon fill="#ff0000" stroke="#ff0000" points="757.8122,-65.5001 767.8122,-62 757.8122,-58.5001 757.8122,-65.5001"/>
<text text-anchor="middle" x="746.0384" y="-66.2" font-family="Times,serif" font-size="14.00" fill="#ff0000">P</text>
</g>
<!-- 12 -->
<g id="node12" class="node">
<title>12</title>
<ellipse fill="none" stroke="#ff0000" cx="876.1167" cy="-62" rx="20.8887" ry="20.8887"/>
<text text-anchor="middle" x="876.1167" y="-57.8" font-family="Times,serif" font-size="14.00" fill="#ff0000">12</text>
</g>
<!-- 11&#45;&gt;12 -->
<g id="edge16" class="edge">
<title>11&#45;&gt;12</title>
<path fill="none" stroke="#ff0000" d="M809.3579,-62C819.9588,-62 833.0801,-62 844.8766,-62"/>
<polygon fill="#ff0000" stroke="#ff0000" points="845.2276,-65.5001 855.2275,-62 845.2275,-58.5001 845.2276,-65.5001"/>
<text text-anchor="middle" x="832.3699" y="-66.2" font-family="Times,serif" font-size="14.00" fill="#ff0000">Q</text>
</g>
<!-- 13 -->
<g id="node13" class="node">
<title>13</title>
<ellipse fill="none" stroke="#ff0000" cx="961.2862" cy="-101" rx="20.8887" ry="20.8887"/>
<text text-anchor="middle" x="961.2862" y="-96.8" font-family="Times,serif" font-size="14.00" fill="#ff0000">13</text>
</g>
<!-- 12&#45;&gt;13 -->
<g id="edge18" class="edge">
<title>12&#45;&gt;13</title>
<path fill="none" stroke="#ff0000" d="M895.0185,-70.6554C906.2657,-75.8055 920.7445,-82.4355 933.298,-88.1839"/>
<polygon fill="#ff0000" stroke="#ff0000" points="931.8878,-91.3876 942.4371,-92.3688 934.8022,-85.0232 931.8878,-91.3876"/>
<text text-anchor="middle" x="918.7014" y="-86.2" font-family="Times,serif" font-size="14.00" fill="#ff0000">S</text>
</g>
<!-- 14 -->
<g id="node14" class="node">
<title>14</title>
<ellipse fill="none" stroke="#ff0000" cx="1047.2257" cy="-62" rx="20.8887" ry="20.8887"/>
<text text-anchor="middle" x="1047.2257" y="-57.8" font-family="Times,serif" font-size="14.00" fill="#ff0000">14</text>
</g>
<!-- 12&#45;&gt;14 -->
<g id="edge3" class="edge">
<title>12&#45;&gt;14</title>
<path fill="none" stroke="#000000" d="M896.6758,-58.8727C909.3108,-57.1102 925.8487,-55.0886 940.5927,-54.2 958.9536,-53.0934 963.618,-53.1063 981.9796,-54.2 993.3711,-54.8785 1005.8222,-56.2177 1016.7655,-57.5976"/>
<polygon fill="#000000" stroke="#000000" points="1016.3392,-61.0716 1026.7118,-58.9129 1017.257,-54.1321 1016.3392,-61.0716"/>
<text text-anchor="middle" x="961.2862" y="-59.2" font-family="Times,serif" font-size="14.00" fill="#000000">R</text>
</g>
<!-- 13&#45;&gt;14 -->
<g id="edge4" class="edge">
<title>13&#45;&gt;14</title>
<path fill="none" stroke="#ff0000" d="M980.3589,-92.3446C991.7077,-87.1945 1006.3175,-80.5645 1018.9845,-74.8161"/>
<polygon fill="#ff0000" stroke="#ff0000" points="1020.5464,-77.9509 1028.2062,-70.6312 1017.6536,-71.5765 1020.5464,-77.9509"/>
<text text-anchor="middle" x="1004.2559" y="-86.2" font-family="Times,serif" font-size="14.00" fill="#ff0000">T</text>
</g>
<!-- 15 -->
<g id="node15" class="node">
<title>15</title>
<ellipse fill="none" stroke="#ff0000" cx="1134.7192" cy="-62" rx="20.8887" ry="20.8887"/>
<text text-anchor="middle" x="1134.7192" y="-57.8" font-family="Times,serif" font-size="14.00" fill="#ff0000">15</text>
</g>
<!-- 14&#45;&gt;15 -->
<g id="edge5" class="edge">
<title>14&#45;&gt;15</title>
<path fill="none" stroke="#ff0000" d="M1067.9604,-62C1078.5613,-62 1091.6826,-62 1103.4792,-62"/>
<polygon fill="#ff0000" stroke="#ff0000" points="1103.8301,-65.5001 1113.8301,-62 1103.83,-58.5001 1103.8301,-65.5001"/>
<text text-anchor="middle" x="1090.9724" y="-66.2" font-family="Times,serif" font-size="14.00" fill="#ff0000">U</text>
</g>
</g>
</svg>
